<?xml version="1.0" standalone="no"?>
<!DOCTYPE svg PUBLIC "-//W3C//DTD SVG 20010904//EN"
 "http://www.w3.org/TR/2001/REC-SVG-20010904/DTD/svg10.dtd">
<svg version="1.0" xmlns="http://www.w3.org/2000/svg"
 width="360.000000pt" height="360.000000pt" viewBox="0 0 360.000000 360.000000"
 preserveAspectRatio="xMidYMid meet">
<metadata>
Created by potrace 1.14, written by Peter Selinger 2001-2017
</metadata>
<g transform="translate(0.000000,360.000000) scale(0.100000,-0.100000)"
fill="#000000" stroke="none">
<path d="M898 2697 l-898 -899 206 -203 205 -204 695 695 c382 382 694 700
694 707 3 56 1 800 -2 801 -2 1 -407 -403 -900 -897z"/>
<path d="M1093 1514 l-691 -694 -1 -405 c0 -223 2 -405 5 -405 3 0 409 403
902 896 l896 896 -207 204 c-114 112 -208 203 -209 203 -2 -1 -314 -314 -695
-695z"/>
<path d="M2280 1305 c-824 -824 -892 -895 -879 -912 8 -10 99 -102 204 -206
l190 -187 694 694 694 694 0 401 c-1 221 -3 404 -5 406 -2 2 -406 -398 -898
-890z"/>
</g>
</svg>
